<?xml version="1.0" encoding="UTF-8"?><svg xmlns="http://www.w3.org/2000/svg" viewBox="0 0 300 300" x="0px" y="0px" width="130px" height="130px" xmlns:xlink="http://www.w3.org/1999/xlink" version="1.1"><title>Investment Colored Icons</title><g id="Layer_2" data-name="Layer 2"><path d="M115.85,48.91h91.41V62.32l-6,1.79,1.65,160.34s13.41-14.17,15.45-16.73,10.29-4.85,14.72-1.4,6.47,8.68,1.49,15.19-26.17,26.55-26.17,26.55l-99.06-.63s2.94,7.53-8.17,7.53-41.49-1.15-41.49-1.15V204.92h49.41l1.65,10.21h12l-.38-150.64-6-.26-1-16.08Z" style="fill:#2a94f4;"/><path d="M112.15,215.51s25.11.09,27.74-1.36,11-7.41,14.47-11.15,8.68-7.06,12.85-4,6.9,4.26,4.85,10-11,17-11,17l38.29-1.7,25.36-19.36s8,.89,10,4.29,1.36,8.51-1.36,12.26-26.05,26.3-26.05,26.3l-96.85-.43S109.77,217,112.15,215.51Z" style="fill:#ffe3ca;"/><path d="M187.21,221.64l-1.4-37.92-23.46-17.23L137.43,183s-.39,30,0,30.89,14.17-8.72,19.53-12.46,12.51-2.22,13.53-.56S169.6,214,169,215.13a29.48,29.48,0,0,1-4.22,4.59c-1.91,1.92-1.85,1.65-2.39,3.06s-2.46,1.79,2.14,1.92,16.72.9,16.72.9Z" style="fill:#cce9ff;"/><polygon points="117.25 48.66 207.25 48.91 207.25 62.32 117.25 64.27 117.25 48.66" style="fill:#cce9ff;"/></g><g id="Layer_1" data-name="Layer 1"><path d="M59.78,258H109.3a3.53,3.53,0,0,0,3.53-3.54V250.9h95.49a3.54,3.54,0,0,0,2.5-1l25.37-25.37a13.54,13.54,0,0,0-19.14-19.15L204.79,217.6V67h3.53a3.53,3.53,0,0,0,3.54-3.54V49.31a3.53,3.53,0,0,0-3.54-3.54H116.37a3.54,3.54,0,0,0-3.54,3.54V63.45A3.54,3.54,0,0,0,116.37,67h3.54V212h-7.08v-7.07a3.54,3.54,0,0,0-3.53-3.54H59.78a3.54,3.54,0,0,0-3.53,3.54v49.51A3.53,3.53,0,0,0,59.78,258ZM119.91,52.84h84.88v7.08H119.91ZM190.64,183.7a3.52,3.52,0,0,0-.25-1.24,2.37,2.37,0,0,0-.19-.35,3.09,3.09,0,0,0-.46-.71,3.43,3.43,0,0,0-.33-.33,1.88,1.88,0,0,0-.25-.24l-24.75-17.68a3.53,3.53,0,0,0-4.11,0l-24.76,17.68a1.36,1.36,0,0,0-.24.24,3.51,3.51,0,0,0-.34.33,3.09,3.09,0,0,0-.46.71,3.9,3.9,0,0,0-.19.35,3.48,3.48,0,0,0-.26,1.24V212H127V67h70.73V222.6h-7.07ZM163,194.31a13.43,13.43,0,0,0-9.57,4l-12.26,12.25V187.24h42.44V222.6H167.35l5.18-5.18A13.54,13.54,0,0,0,163,194.31Zm-14.33-14.15,13.72-9.8,13.72,9.8Zm-35.8,38.91h28.3a3.56,3.56,0,0,0,2.5-1l14.75-14.75a6.47,6.47,0,0,1,9.15,9.15l-11.22,11.21a3.54,3.54,0,0,0,2.5,6h42.44a3.54,3.54,0,0,0,2.5-1l18.3-18.3a6.55,6.55,0,0,1,4.75-1.88,6.46,6.46,0,0,1,4.39,11l-24.33,24.33h-94ZM63.32,208.46h42.44V250.9H63.32Zm0,0" style="fill:#0b4870;"/><rect x="134.05" y="116.5" width="14.15" height="7.07" style="fill:#0b4870;"/><rect x="155.27" y="116.5" width="14.15" height="7.07" style="fill:#0b4870;"/><rect x="176.49" y="116.5" width="14.15" height="7.07" style="fill:#0b4870;"/><rect x="134.05" y="130.65" width="14.15" height="7.07" style="fill:#0b4870;"/><rect x="155.27" y="130.65" width="14.15" height="7.07" style="fill:#0b4870;"/><rect x="176.49" y="130.65" width="14.15" height="7.07" style="fill:#0b4870;"/><rect x="134.05" y="144.8" width="14.15" height="7.07" style="fill:#0b4870;"/><rect x="155.27" y="144.8" width="14.15" height="7.07" style="fill:#0b4870;"/><rect x="176.49" y="144.8" width="14.15" height="7.07" style="fill:#0b4870;"/><rect x="134.05" y="74.06" width="14.15" height="7.07" style="fill:#0b4870;"/><rect x="155.27" y="74.06" width="14.15" height="7.07" style="fill:#0b4870;"/><rect x="176.49" y="74.06" width="14.15" height="7.07" style="fill:#0b4870;"/><rect x="134.05" y="88.21" width="14.15" height="7.07" style="fill:#0b4870;"/><rect x="155.27" y="88.21" width="14.15" height="7.07" style="fill:#0b4870;"/><rect x="176.49" y="88.21" width="14.15" height="7.07" style="fill:#0b4870;"/><rect x="134.05" y="102.36" width="14.15" height="7.07" style="fill:#0b4870;"/><rect x="155.27" y="102.36" width="14.15" height="7.07" style="fill:#0b4870;"/><rect x="176.49" y="102.36" width="14.15" height="7.07" style="fill:#0b4870;"/><path d="M92.64,237.78a3.66,3.66,0,0,0-1,2.51,3.54,3.54,0,0,0,6,2.51c.14-.18.28-.36.43-.57a2.13,2.13,0,0,0,.31-.6,1.8,1.8,0,0,0,.21-.63,4.41,4.41,0,0,0,.08-.71,3.54,3.54,0,0,0-6-2.51Zm0,0" style="fill:#0b4870;"/><rect x="134.05" y="158.94" width="14.15" height="7.07" style="fill:#0b4870;"/><rect x="176.49" y="158.94" width="14.15" height="7.07" style="fill:#0b4870;"/></g></svg>
