<?xml version="1.0" standalone="no"?>
<!DOCTYPE svg PUBLIC "-//W3C//DTD SVG 20010904//EN"
 "http://www.w3.org/TR/2001/REC-SVG-20010904/DTD/svg10.dtd">
<svg version="1.0" xmlns="http://www.w3.org/2000/svg"
 width="100pt" height="100pt" viewBox="0 0 201.000000 200.000000"
 preserveAspectRatio="xMidYMid meet">

<g transform="translate(0.000000,200.000000) scale(0.100000,-0.100000)"
fill="#000000" stroke="none">
<path d="M1025 1615 c-60 -30 -118 -54 -127 -54 -10 -1 -18 -5 -18 -11 0 -5
-9 -10 -20 -10 -11 0 -20 -4 -20 -10 0 -5 -9 -10 -20 -10 -11 0 -20 -4 -20
-10 0 -5 -11 -10 -25 -10 -14 0 -25 -4 -25 -10 0 -5 -9 -10 -20 -10 -13 0 -20
-7 -20 -20 0 -36 73 -148 98 -149 6 -1 12 -5 12 -11 0 -6 33 -10 80 -10 47 0
80 4 80 10 0 6 10 10 23 10 13 0 27 4 33 9 5 5 36 18 69 30 51 18 62 19 80 7
11 -8 89 -82 174 -165 84 -83 155 -151 157 -151 9 0 114 -110 114 -120 0 -5 3
-10 8 -10 15 0 32 -56 32 -107 l0 -53 85 0 85 0 0 415 c0 408 0 415 -20 415
-11 0 -20 -4 -20 -10 0 -5 -13 -10 -30 -10 -16 0 -30 -4 -30 -10 0 -5 -13 -10
-29 -10 -17 0 -33 -4 -36 -10 -3 -5 -19 -10 -36 -10 -16 0 -29 -4 -29 -10 0
-5 -9 -10 -20 -10 -11 0 -20 5 -20 10 0 6 -11 10 -25 10 -14 0 -25 5 -25 10 0
6 -11 10 -24 10 -13 0 -26 3 -28 8 -1 4 -28 18 -58 31 -30 13 -75 33 -100 44
-75 35 -114 47 -145 46 -16 0 -79 -25 -140 -54z"/>
<path d="M170 1165 l0 -415 48 0 c36 0 51 -5 62 -20 8 -11 18 -20 22 -20 5 0
28 -19 52 -42 69 -67 136 -128 141 -128 3 0 28 -22 56 -50 28 -27 55 -50 60
-50 5 0 29 -19 53 -42 70 -69 115 -108 126 -108 5 0 10 -4 10 -10 0 -5 9 -10
20 -10 11 0 20 -4 20 -10 0 -6 28 -10 65 -10 37 0 65 4 65 10 0 6 11 10 25 10
19 0 74 48 235 209 116 114 210 213 210 220 0 6 4 11 8 11 12 0 29 40 37 83 6
33 3 38 -59 98 -36 35 -115 112 -175 172 -60 59 -117 107 -126 107 -9 0 -51
-12 -93 -26 -65 -22 -90 -25 -160 -22 -45 3 -88 10 -94 16 -7 7 -20 12 -30 12
-10 0 -18 5 -18 10 0 6 -6 10 -13 10 -18 0 -87 65 -87 82 0 7 -9 20 -20 28
-11 8 -20 22 -20 32 0 10 -4 18 -10 18 -5 0 -10 6 -10 13 0 7 -9 32 -20 55
-25 52 -25 82 0 134 11 23 20 43 20 45 0 2 -90 3 -200 3 l-200 0 0 -415z"/>
</g>
</svg>
