<?xml version="1.0" standalone="no"?>
<!DOCTYPE svg PUBLIC "-//W3C//DTD SVG 20010904//EN"
 "http://www.w3.org/TR/2001/REC-SVG-20010904/DTD/svg10.dtd">
<svg version="1.0" xmlns="http://www.w3.org/2000/svg"
 width="100pt" height="100pt" viewBox="0 0 201.000000 200.000000"
 preserveAspectRatio="xMidYMid meet">

<g transform="translate(0.000000,200.000000) scale(0.100000,-0.100000)"
fill="#000000" stroke="none">
<path d="M750 1710 l0 -40 -219 0 c-239 0 -265 -5 -311 -57 -50 -56 -50 -56
-50 -363 0 -307 0 -307 50 -363 49 -55 61 -57 445 -57 l353 0 23 26 c64 70
122 124 135 124 8 0 14 5 14 10 0 6 7 10 15 10 8 0 15 5 15 10 0 6 9 10 19 10
11 0 23 5 26 10 3 6 17 10 31 10 13 0 24 4 24 9 0 15 69 24 185 24 116 0 185
-9 185 -24 0 -5 14 -9 30 -9 17 0 30 -4 30 -10 0 -5 9 -10 20 -10 11 0 20 -4
20 -10 0 -5 7 -10 15 -10 8 0 15 -4 15 -10 0 -5 5 -10 10 -10 6 0 10 100 10
280 0 297 0 297 -50 353 -46 52 -72 57 -311 57 l-219 0 0 40 0 40 -255 0 -255
0 0 -40z m308 -568 c24 -21 32 -37 32 -61 0 -32 -19 -61 -39 -61 -6 0 -11 -4
-11 -10 0 -5 -16 -10 -35 -10 -19 0 -35 5 -35 10 0 6 -5 10 -11 10 -21 0 -39
29 -39 64 0 20 5 36 10 36 6 0 10 6 10 13 0 14 36 34 66 36 11 0 35 -12 52
-27z"/>
<path d="M1430 911 c-8 -6 -27 -11 -41 -11 -47 0 -218 -117 -219 -150 0 -9 -9
-22 -20 -30 -11 -8 -20 -25 -20 -37 0 -13 -4 -23 -10 -23 -5 0 -10 -13 -10
-29 0 -17 -4 -33 -10 -36 -5 -3 -10 -46 -10 -95 0 -49 5 -92 10 -95 6 -3 10
-19 10 -36 0 -16 5 -29 10 -29 6 0 10 -10 10 -23 0 -12 9 -29 20 -37 11 -8 20
-21 20 -28 0 -35 150 -138 223 -154 124 -26 196 -19 294 28 l51 26 76 -77 77
-76 54 57 c63 65 65 54 -27 146 -53 52 -73 88 -48 88 6 0 10 11 10 25 0 14 5
25 10 25 6 0 10 13 10 29 0 17 5 33 10 36 6 3 10 46 10 95 0 49 -4 92 -10 95
-5 3 -10 19 -10 36 0 16 -4 29 -10 29 -5 0 -10 10 -10 23 0 12 -9 29 -20 37
-11 8 -20 21 -20 28 0 35 -149 138 -223 154 -67 15 -171 20 -187 9z m140 -171
c0 -5 11 -10 25 -10 14 0 38 -11 53 -25 15 -14 35 -33 44 -41 76 -71 76 -257
0 -328 -9 -8 -29 -27 -44 -41 -15 -14 -39 -25 -53 -25 -14 0 -25 -4 -25 -10 0
-6 -28 -10 -65 -10 -37 0 -65 4 -65 10 0 6 -11 10 -25 10 -14 0 -38 11 -53 25
-15 14 -35 33 -44 41 -76 71 -76 257 0 328 9 8 29 27 44 41 15 14 39 25 53 25
14 0 25 5 25 10 0 6 28 10 65 10 37 0 65 -4 65 -10z"/>
<path d="M170 585 c0 -131 4 -146 50 -198 48 -55 65 -57 406 -57 l314 0 0 35
c0 19 -4 35 -10 35 -6 0 -10 40 -10 100 0 60 4 100 10 100 6 0 10 16 10 35 l0
35 -339 0 c-216 0 -342 4 -346 10 -3 6 -17 10 -31 10 -13 0 -24 5 -24 10 0 6
-7 10 -15 10 -13 0 -15 -21 -15 -125z"/>
</g>
</svg>
