<?xml version="1.0" standalone="no"?>
<!DOCTYPE svg PUBLIC "-//W3C//DTD SVG 20010904//EN"
 "http://www.w3.org/TR/2001/REC-SVG-20010904/DTD/svg10.dtd">
<svg version="1.0" xmlns="http://www.w3.org/2000/svg"
 width="100pt" height="100pt" viewBox="0 0 201.000000 200.000000"
 preserveAspectRatio="xMidYMid meet">

<g transform="translate(0.000000,200.000000) scale(0.100000,-0.100000)"
fill="#000000" stroke="none">
<path d="M890 1820 c-8 -5 -32 -10 -52 -10 -21 0 -38 -4 -38 -10 0 -5 -11 -10
-24 -10 -14 0 -28 -4 -31 -10 -3 -5 -15 -10 -26 -10 -10 0 -19 -4 -19 -10 0
-5 -7 -10 -15 -10 -8 0 -15 -4 -15 -10 0 -5 -7 -10 -15 -10 -17 0 -28 -9 -117
-92 -32 -29 -58 -58 -58 -63 0 -6 -9 -17 -20 -25 -11 -8 -20 -22 -20 -32 0
-10 -3 -18 -7 -18 -9 0 -33 -49 -33 -67 0 -7 -4 -13 -10 -13 -5 0 -10 -11 -10
-25 0 -14 -4 -25 -10 -25 -5 0 -10 -18 -10 -40 0 -22 -4 -40 -10 -40 -6 0 -10
-54 -10 -141 0 -126 -2 -143 -19 -158 -33 -29 -61 -101 -61 -158 0 -85 54
-171 127 -202 19 -8 37 -31 58 -73 17 -34 35 -66 40 -72 6 -6 22 -29 36 -51
35 -54 149 -165 169 -165 5 0 10 -4 10 -10 0 -5 7 -10 15 -10 8 0 15 -4 15
-10 0 -5 9 -10 19 -10 11 0 23 -4 26 -10 3 -5 15 -10 26 -10 10 0 19 -4 19 -9
0 -16 71 -23 258 -28 l182 -4 0 81 0 80 -147 0 c-158 0 -201 8 -291 54 -55 28
-192 156 -192 180 0 8 -3 16 -7 18 -5 2 -19 26 -32 53 -57 120 -53 115 -88
115 -18 0 -33 5 -33 10 0 6 -5 10 -11 10 -21 0 -39 29 -39 64 0 20 5 36 10 36
6 0 10 6 10 14 0 8 9 18 20 21 42 13 50 32 50 123 1 90 8 109 47 130 31 17
865 17 896 0 45 -23 46 -32 47 -265 l0 -223 -175 0 c-152 0 -175 2 -175 16 0
20 -24 44 -44 44 -9 0 -16 5 -16 10 0 6 -20 10 -45 10 -25 0 -45 -3 -45 -8 0
-4 -13 -13 -30 -20 -18 -8 -30 -21 -30 -33 0 -10 -4 -19 -10 -19 -5 0 -10 -20
-10 -45 0 -25 5 -45 10 -45 6 0 10 -9 10 -19 0 -12 12 -25 30 -33 16 -7 30
-16 30 -20 0 -5 164 -8 365 -8 237 0 365 4 365 10 0 6 6 10 14 10 18 0 62 45
81 83 21 42 21 252 0 294 -19 38 -63 83 -81 83 -8 0 -14 5 -14 10 0 6 -13 10
-30 10 l-30 0 0 139 c0 83 -4 142 -10 146 -5 3 -10 24 -10 46 0 21 -4 39 -10
39 -5 0 -10 11 -10 25 0 14 -4 25 -10 25 -5 0 -10 9 -10 20 0 11 -4 20 -10 20
-5 0 -10 9 -10 20 0 11 -4 20 -10 20 -5 0 -10 7 -10 15 0 17 -14 35 -93 115
-77 78 -104 100 -122 100 -8 0 -15 5 -15 10 0 6 -7 10 -15 10 -8 0 -15 5 -15
10 0 6 -9 10 -19 10 -11 0 -23 5 -26 10 -3 6 -17 10 -31 10 -13 0 -24 4 -24 9
0 20 -293 39 -320 21z"/>
</g>
</svg>
